HIERARCHY
ROOT Hips
{
  OFFSET 0 0 0
  CHANNELS 6 Xposition Yposition Zposition Zrotation Xrotation Yrotation
  JOINT Spine
  {
    OFFSET 0 9.9235 -1.22729
    CHANNELS 3 Zrotation Xrotation Yrotation
    JOINT Spine1
    {
      OFFSET -9.9969e-05 11.6454 -1.4223
      CHANNELS 3 Zrotation Xrotation Yrotation
      JOINT Spine2
      {
        OFFSET 9.98118e-05 13.3602 -1.6265
        CHANNELS 3 Zrotation Xrotation Yrotation
        JOINT Neck
        {
          OFFSET 0 15.0325 0.7929
          CHANNELS 3 Zrotation Xrotation Yrotation
          JOINT Head
          {
            OFFSET 0 10.3218 3.1424
            CHANNELS 3 Zrotation Xrotation Yrotation
            End Site
            {
              OFFSET 0.0002 18.4747 6.6364
            }
          }
        }
        JOINT LeftShoulder
        {
          OFFSET 6.1058 9.1104 0.7056
          CHANNELS 3 Zrotation Xrotation Yrotation
          JOINT LeftArm
          {
            OFFSET 12.655 -0.265904 -2.60091
            CHANNELS 3 Zrotation Xrotation Yrotation
            JOINT LeftForeArm
            {
              OFFSET 27.4047 0 0
              CHANNELS 3 Zrotation Xrotation Yrotation
              JOINT LeftHand
              {
                OFFSET 27.6145 -1.98104e-05 0
                CHANNELS 3 Zrotation Xrotation Yrotation
                End Site
                {
                  OFFSET 12.7755 0 0
                }
              }
            }
          }
        }
        JOINT RightShoulder
        {
          OFFSET -6.1057 9.1105 0.7056
          CHANNELS 3 Zrotation Xrotation Yrotation
          JOINT RightArm
          {
            OFFSET -12.655 -0.265999 -2.6009
            CHANNELS 3 Zrotation Xrotation Yrotation
            JOINT RightForeArm
            {
              OFFSET -27.4047 0 0
              CHANNELS 3 Zrotation Xrotation Yrotation
              JOINT RightHand
              {
                OFFSET -27.6145 0 0
                CHANNELS 3 Zrotation Xrotation Yrotation
                End Site
                {
                  OFFSET -12.7755 0 0
                }
              }
            }
          }
        }
      }
    }
  }
  JOINT RightUpLeg
  {
    OFFSET -9.12449 -6.6564 -0.0554004
    CHANNELS 3 Zrotation Xrotation Yrotation
    JOINT RightLeg
    {
      OFFSET -0.245231 -40.5954 -0.51698
      CHANNELS 3 Zrotation Xrotation Yrotation
      JOINT RightFoot
      {
        OFFSET 0.244701 -42.0479 -2.0602
        CHANNELS 3 Zrotation Xrotation Yrotation
        JOINT RightToe
        {
          OFFSET -0.373402 -10.4922 12.6407
          CHANNELS 3 Zrotation Xrotation Yrotation
          End Site
          {
            OFFSET 0 0 9.9925
          }
        }
      }
    }
  }
  JOINT LeftUpLeg
  {
    OFFSET 9.1245 -6.6564 -0.055401
    CHANNELS 3 Zrotation Xrotation Yrotation
    JOINT LeftLeg
    {
      OFFSET 0.245022 -40.5954 -0.518725
      CHANNELS 3 Zrotation Xrotation Yrotation
      JOINT LeftFoot
      {
        OFFSET -0.244696 -42.048 -2.0576
        CHANNELS 3 Zrotation Xrotation Yrotation
        JOINT LeftToe
        {
          OFFSET 0.373399 -10.4922 12.6407
          CHANNELS 3 Zrotation Xrotation Yrotation
          End Site
          {
            OFFSET 0 0 9.9925
          }
        }
      }
    }
  }
}
MOTION
Frames: 12
Frame Time:	0.0333333
-5.70446  88.0459  1893.63  1.97601  1.41644 -24.6742 -12.2892  2.86683 -4.98177 -1.60468  0.43113  -2.5561 -3.27694  3.43849  2.76007  9.0149 5.21212 -11.963 -8.16504 -40.2368 -59.0497  0.23933 -1.69872 -26.0424  34.1165 -9.65305 -9.52699 -2.78319  4.26938  9.38566   17.888 -60.4073  58.4963    -1.249 -0.696973   37.1339 -25.3627  20.1901  10.5362 -0.551726   3.06086   5.40233 -2.11962 -4.43282  34.0526  26.4321 -49.0424  22.7679 -3.83942  35.9304  11.6537 -8.12253  1.69155  3.30255  -1.24164   -3.8041 -0.254397 -4.30677  23.4247  -14.646 -5.01624  2.66562   0.7231  15.1603 -27.2221 -5.96772 0.189822 -7.93271 -6.04151 
-6.29183  86.3381  1896.73  2.52813   3.4937 -24.1789 -13.5863  3.13848 -4.94631 -2.49528 0.769848 -2.56819 -3.8801 3.02034 2.58953  10.2518  5.34779 -11.9941 -6.13068 -41.7681  -58.904  0.38058 -1.93705 -20.7143   35.346 -12.2036 -7.19911 -4.94484  3.95794  8.14113  19.951 -63.528 64.1507 -1.26753 -1.19145  33.3498 -28.8822  20.5548  10.6451 -0.591196   3.49143    5.5438 -1.5084 -5.4868 35.0527 30.7854 -53.182 26.7096 -3.95811  38.5183  14.3571 -10.0044   4.5915    5.111  -1.50452  -3.57029 -0.291121 -3.56509  24.1014  -14.321 -5.91203   1.4117 -1.03905  16.8235 -28.2948 -5.72145 0.0164365  -8.39555  -8.13775 
-6.82892  84.4311     1900  2.91221  5.80141 -23.2975 -14.7859  3.58192 -4.82942 -3.33672  1.23056 -2.59172 -4.54811  2.85972  2.31182  10.8058  5.65975 -12.1663 -3.72791 -41.5863 -57.6135 0.464418 -2.24263 -15.6599  35.5693 -15.5127 -2.31476 -7.78087  3.71451  7.04816   21.143 -65.8546  67.6701 -1.24977 -1.69172  29.9718 -31.4465  20.8523  9.31016 -0.479726   3.76888   5.55915 -1.91308 -6.54666   35.358  36.4828 -57.7916  32.7232 -4.59121  44.0815  15.8133 -11.7159  5.36691  8.29825   -1.7262   -3.2908 -0.267776 -2.58196  24.4231  -14.302 -6.70351 0.859052 -2.78866  18.9185 -29.4956 -5.77253  -1.0447 -8.19898 -9.91697 
-7.28595  82.4557  1903.44  3.59481  8.12091 -22.5668 -16.4278  4.48019 -4.56494 -4.38017  1.82373 -2.40104 -5.38302  2.82494  2.08824   10.546  5.94261 -12.4651  -1.3533 -40.1064 -55.1759 0.677225 -2.48388 -12.4739  36.0912 -19.2437  3.59941 -10.7932  3.50092  5.36502  22.4132 -66.9673  70.8159 -1.27887 -2.15658  26.8721 -33.0299  20.4348  6.82353 -0.22943   3.8909  5.42742 -2.41187 -8.17116  34.7427  43.6092 -62.2103  40.7673 -6.09882  52.0927  17.8017 -12.4732  4.83133  10.0858  -1.76042  -2.69167 -0.373845 -1.92797  24.5404   -14.56 -7.31046  0.82491 -4.44778  20.1424 -30.2991 -6.87599 0.0152875   -9.7558  -7.47537 
-7.46122  80.6491  1906.97   5.5019  10.5823 -22.5819 -19.2065  5.79413 -4.20255 -6.12922  2.64286 -2.03166 -6.4789 2.64534 1.90038  9.79811  6.12145 -12.9616 0.460015 -38.2232  -52.591  1.16101 -2.67687 -10.9902  36.5727 -22.6427  8.43132 -13.6734  3.26796  3.88155  21.8601 -67.4652  71.7828 -1.51813 -2.39056  24.1238 -33.1876  19.3409  3.99216  0.3112 4.15269 4.94496 -2.50271 -10.9223  33.5393  51.0156 -66.4638  49.2393 -8.90392  61.4101  20.8388 -11.1997   2.3414  9.44423   -1.1845  -2.19457 -0.679177 -2.92319  23.5439 -14.3065 -8.29839  1.59513 -6.09547  23.2583 -30.6426 -7.01774 0.561202 -11.7399 -5.23177 
-7.44182  79.4444  1910.68 8.34315 14.0212 -23.242 -22.7335  7.04704 -3.83257 -8.52773   3.7375 -1.79353 -7.99965  2.44633  1.44769  9.19665  6.18319 -13.8277  1.47805 -36.4438 -50.7317  1.77822 -2.84836 -9.54009  36.2903 -24.4499  11.2921 -16.283 2.90821 3.77634  16.6271 -68.0356  67.1503  -1.7778 -2.38166  21.9238 -32.2081  18.3584  1.90318 1.22061 4.59979 4.33522  -2.6706 -14.5473  32.2174  59.0904 -70.7386  57.8969 -14.0631  71.0192    26.01 -8.18454 -3.72283   6.8885 -0.0247537   -2.50335  -0.979317 -4.47065  20.4243 -13.5579 -9.64154  3.23031 -8.81377  26.4888 -28.6343 -7.67597  1.21249  -12.239 -5.52096 
-7.35718   79.075  1914.68   10.771  19.8552 -24.1578 -25.1338  7.88278 -3.83878 -11.1816  4.76534 -1.90241  -9.8763  2.38473 0.147789  8.88846  6.02909 -15.2272  1.98809  -34.756 -48.4399  1.98525 -3.04196 -8.25741  36.0824 -24.6311  12.7311 -18.6226  2.44478  5.46999  7.91801 -68.3957   58.589 -1.70761 -2.45477  20.0056 -31.4362  17.6474  1.32052 2.39477 4.92062 3.91532 -3.28946 -18.4048  30.3117  69.3517 -75.0269  67.5597 -22.1102  78.7593  32.1538  -5.7414 -11.9985  7.10609  1.02358 -3.01959 -0.87956 -4.80014  14.7812 -13.3562 -10.6203   4.3984   -12.61  28.7064 -21.4009 -8.74145  1.49891  -12.897 -5.12151 
-6.91137  79.8458  1918.99  12.0125  29.1461 -25.0384 -25.1367  9.70958 -4.19689 -13.1966   4.9078 -2.79318 -11.5254  2.16921 -1.64529  9.19005  5.57455 -17.3804  2.29622 -33.5177 -45.5924  1.81295 -3.19982 -6.94317  37.7542 -25.0599  13.8227 -20.6076  1.75925  5.87889 1.11895 -68.373 53.0786 -0.672931  -2.46636   17.1727 -32.1272  16.4423  1.69868 3.82341 4.38497 4.08436 -3.81812 -22.0912  27.5106  82.2298 -79.3286  79.3846 -29.9531  83.1948  38.3918  -4.1962 -18.5629  7.30455   1.54906   -3.2918 -0.681762 -3.85737  5.50576 -14.2653 -10.0067  4.97789 -13.8372  27.8511 -5.72319 -13.6093  9.31565 -23.2761 0.707034 
-6.69733   82.026  1923.55  6.75957  44.4699 -21.3825 -21.9491  14.8364 -3.90053 -10.3118 0.784323  -8.8046 -10.5148  1.69516 -1.64907  9.69794  5.90372 -21.1773  1.57226 -35.0394 -46.1348 -0.0429614   -3.48607  -0.395702  45.6663 -27.3958  17.2619  -21.2305 -0.299055   2.34757 -3.61483  -65.373   53.047  5.99594 -1.88653  13.3441 -38.5361  12.7887  3.35202 6.36288 1.89109  5.8481 -3.98809 -25.2296  23.0242  77.6202 -82.4975  70.1007 0.0299688   71.2198   9.52326 -5.30401 -24.5693  8.61733  2.78553 -6.48444  1.61935  2.42504 -8.04981 -15.0002 -7.25655  5.33841 -17.3575  30.3365  20.8335 -12.7102  14.1644 -29.3306 -7.24746 
-7.06488  84.2847  1929.47 -6.98379   59.864 -11.7187 -18.0439  17.6513 -2.23522 -7.48902 -1.10701 -12.1829 -7.91086  0.71691 -2.31721  11.4603  5.06506 -23.9041  2.27604 -37.5118 -45.9304 -2.25892 -3.73807  1.59897  56.4081 -25.8471  21.3734 -19.0572 -2.15755 -2.01149 -6.77286 -60.7735  55.2665   9.15612 -0.985745   10.9224 -43.2235  9.44265  2.34204    7.1715 -0.902322   7.04365 -2.21038 -29.0914   17.966  116.202 -79.4265  108.029    20.03  63.1844 -14.5278 -2.45126 -33.4709  14.5452 2.82129  0.2061 6.21427   11.021  -17.885 -11.0523 -3.13463   4.2719 -14.6453  34.8625  31.4698 -8.22295  10.2021 -13.9244 -6.25599 
-7.38425  86.4532  1937.44 -24.5695  71.6993   2.3302 -17.1923   18.064 -1.60763 -6.94569 -1.86499 -13.3094 -7.10362 0.304228 -2.64076  12.3063  3.97852 -24.3513  3.00448 -39.6565 -42.5553 -3.50179 -3.64073 -4.92121  68.2194 -16.0558  22.3659 -16.7773 -2.83196 -3.58576 -8.57019  -57.243  58.5341   10.2749 -0.426124   8.90274 -45.5685  7.83832  2.87591   7.2366 -3.45013    7.434 -1.21513 -32.0299  13.0988 123.131 -73.662 110.952  16.5963  56.7384 -13.5777 -0.405736  -37.0784    16.388  5.49189 -3.10167  9.10508  15.0237  -22.244 -8.84431  0.25421  3.78405 -13.1277   34.611  28.9999 -6.03673  6.43459 -11.5796 -5.15839 
-7.33876  87.5702  1946.62 -67.4494  81.2783  40.9435 -16.5086  15.4067 -2.87585 -7.88029  -2.8556 -12.1503  -7.84336 -0.131325  -3.28494  11.7974  2.47595 -23.0612  5.55413 -40.2862 -35.8961 -4.30173 -2.88857 -16.7025  82.1453 0.754604  17.5688 -14.9633 -2.06924 -1.88512 -9.39238 -56.0335  60.5124   8.49482 -0.254614   7.77369 -46.2044  8.15054   6.4158  6.07633 -5.69475  6.95951 -1.16227  -34.264  8.77614  123.002 -66.4933  107.834  10.2441  50.0939 -6.26109 -0.516681  -40.3059   14.3302  5.09182 -3.84435  6.32655  14.7186 -24.1231 -9.67275  2.41182   6.1495 -12.6228  33.8426  18.6779 -7.01179  4.28826 -8.94819 -4.35555 
